<svg width="143" height="42" viewBox="0 0 143 42" fill="none" xmlns="http://www.w3.org/2000/svg">
<path d="M3.67378 0.367378H138.553C140.379 0.367378 141.86 1.8477 141.86 3.67378V38.3261C141.86 40.1522 140.379 41.6325 138.553 41.6325H3.67378C1.8477 41.6325 0.367378 40.1522 0.367378 38.3261V3.67378C0.367378 1.8477 1.8477 0.367378 3.67378 0.367378Z" fill="black" stroke="#A6A6A6" stroke-width="0.734756"/>
<path d="M39.0062 20.3175C38.9829 17.5299 41.2877 16.175 41.3889 16.1128C40.0808 14.2128 38.0563 13.9481 37.3477 13.9247C35.6502 13.7456 33.9995 14.9448 33.1352 14.9448C32.2553 14.9448 30.916 13.9481 29.4833 13.9714C27.6378 14.0026 25.9014 15.0694 24.9593 16.7357C23.0048 20.1228 24.4609 25.1062 26.3375 27.8471C27.2797 29.1864 28.3698 30.6892 29.8103 30.6347C31.2119 30.5802 31.7414 29.7392 33.431 29.7392C35.1129 29.7392 35.6035 30.6347 37.0674 30.6035C38.578 30.5802 39.5201 29.2565 40.4312 27.9016C41.5135 26.3677 41.9495 24.8493 41.9651 24.7714C41.9262 24.7558 39.0374 23.6501 39.0062 20.3175Z" fill="white"/>
<path d="M36.2426 12.1258C36.9979 11.1836 37.5118 9.89884 37.3716 8.5907C36.2815 8.63742 34.9111 9.34599 34.1246 10.2726C33.4316 11.0902 32.8087 12.4217 32.9644 13.6753C34.1947 13.7688 35.4561 13.0524 36.2426 12.1258Z" fill="white"/>
</svg>
