<svg width="25" height="27" viewBox="0 0 25 27" fill="none" xmlns="http://www.w3.org/2000/svg">
<path d="M17.9437 17.8992L13.6888 13.6367L17.9434 9.37484L23.0798 12.2977C23.7321 12.6689 24.0983 13.1474 24.1595 13.6362V13.6382C24.0983 14.1259 23.7321 14.6048 23.0798 14.9759L17.9438 17.8991" fill="url(#paint0_linear_5151_4)"/>
<path d="M13.6894 13.6365L0.926392 0.853162C1.169 0.634291 1.47969 0.518223 1.83577 0.518223C2.18508 0.518223 2.57738 0.629838 2.99189 0.865217L17.9439 9.37466L13.6894 13.6365" fill="url(#paint1_linear_5151_4)"/>
<path d="M0.927505 26.4191L0.850946 26.3457C0.551204 26.0281 0.374207 25.5347 0.374207 24.896V25.0463V2.22771V2.37841C0.374207 1.68675 0.580557 1.16568 0.926253 0.853276L13.6893 13.6366L0.927505 26.4191Z" fill="url(#paint2_linear_5151_4)"/>
<path d="M1.83796 26.7546C1.48146 26.755 1.17036 26.6385 0.927795 26.4192V26.4189L13.6895 13.6364L17.9445 17.8989L2.992 26.4084C2.57832 26.6434 2.18635 26.7546 1.83796 26.7546Z" fill="url(#paint3_linear_5151_4)"/>
<defs>
<linearGradient id="paint0_linear_5151_4" x1="24.9542" y1="13.563" x2="0.0284" y2="13.563" gradientUnits="userSpaceOnUse">
<stop stop-color="#FFE000"/>
<stop offset="0.4087" stop-color="#FFBD00"/>
<stop offset="0.7754" stop-color="#FFA500"/>
<stop offset="1" stop-color="#FF9C00"/>
</linearGradient>
<linearGradient id="paint1_linear_5151_4" x1="-2.363" y1="-1.04203" x2="5.9437" y2="7.22999" gradientUnits="userSpaceOnUse">
<stop stop-color="#32A071"/>
<stop offset="0.0685" stop-color="#2DA771"/>
<stop offset="0.4762" stop-color="#15CF74"/>
<stop offset="0.8009" stop-color="#06E775"/>
<stop offset="1" stop-color="#00F076"/>
</linearGradient>
<linearGradient id="paint2_linear_5151_4" x1="8.53054" y1="1.98654" x2="-2.46831" y2="13.0031" gradientUnits="userSpaceOnUse">
<stop stop-color="#00A0FF"/>
<stop offset="0.00657" stop-color="#00A1FF"/>
<stop offset="0.2601" stop-color="#00BEFF"/>
<stop offset="0.5122" stop-color="#00D2FF"/>
<stop offset="0.7604" stop-color="#00DFFF"/>
<stop offset="1" stop-color="#00E3FF"/>
</linearGradient>
<linearGradient id="paint3_linear_5151_4" x1="15.6855" y1="17.6891" x2="-2.9529" y2="36.2211" gradientUnits="userSpaceOnUse">
<stop stop-color="#FF3A44"/>
<stop offset="1" stop-color="#C31162"/>
</linearGradient>
</defs>
</svg>
