<svg width="120" height="29" viewBox="0 0 120 29" fill="none" xmlns="http://www.w3.org/2000/svg">
<path d="M67.9527 6.41332H68.0557V0.325735H68.8621L71.8659 5.14168H72.0631L72.0261 3.84395V0.325782H72.6148V6.31009H71.946L68.8034 1.26076H68.6062L68.6432 2.55905V6.31009H67.9527V6.41327H68.0557H67.9527V6.51644H68.8492V2.55576L68.815 1.36115L68.712 1.36394V1.46711H68.7462V1.36394L68.6588 1.41879L71.8317 6.51644H72.8208V0.119385H71.8201V3.84668L71.8543 5.04129L71.9573 5.03851V4.93533H71.9231V5.03851L72.0104 4.98374L68.9763 0.119385H67.8497V6.51644H67.9528V6.41327L67.9527 6.41332ZM100.258 23.9536H102.18V11.0551H100.258L100.258 23.9536ZM117.571 15.7015L115.368 21.2936H115.302L113.015 15.7014H110.944L114.374 23.5175L112.418 27.8652H114.424L119.709 15.7014L117.571 15.7015ZM106.67 22.4886C106.04 22.4886 105.162 22.1734 105.162 21.3932C105.162 20.3976 106.256 20.016 107.2 20.016C108.046 20.016 108.442 20.1985 108.956 20.4477C108.807 21.6422 107.78 22.4886 106.67 22.4886V22.4886ZM106.902 15.4193C105.51 15.4193 104.069 16.0334 103.473 17.3942L105.179 18.1076C105.543 17.3942 106.222 17.1616 106.935 17.1616C107.929 17.1616 108.94 17.7593 108.956 18.8213V18.954C108.608 18.7548 107.863 18.4562 106.952 18.4562C105.113 18.4562 103.24 19.4682 103.24 21.3601C103.24 23.0859 104.748 24.1979 106.438 24.1979C107.73 24.1979 108.442 23.6171 108.89 22.9368H108.956V23.9323H110.811V18.9869C110.811 16.6973 109.106 15.4193 106.902 15.4193V15.4193ZM95.0228 17.2716H92.2889V12.8503H95.0228C96.4599 12.8503 97.2757 14.042 97.2757 15.0609C97.2757 16.0605 96.4598 17.2716 95.0228 17.2716ZM94.9734 11.0551H90.3677V23.9536H92.2888V19.0668H94.9734C97.1037 19.0668 99.1979 17.5219 99.1979 15.0609C99.1979 12.6 97.1037 11.0551 94.9734 11.0551V11.0551ZM69.858 22.491C68.5301 22.491 67.4183 21.3774 67.4183 19.8479C67.4183 18.3023 68.5301 17.1717 69.858 17.1717C71.169 17.1717 72.1979 18.3022 72.1979 19.8479C72.1979 21.3774 71.169 22.491 69.858 22.491H69.858ZM72.0651 16.4237H71.9987C71.5674 15.9085 70.7372 15.4431 69.6919 15.4431C67.5012 15.4431 65.4933 17.3712 65.4933 19.8479C65.4933 22.3081 67.5011 24.2197 69.6919 24.2197C70.7372 24.2197 71.5674 23.7541 71.9987 23.2225H72.0651V23.8541C72.0651 25.5332 71.169 26.4308 69.7252 26.4308C68.547 26.4308 67.8167 25.5827 67.5177 24.8681L65.8418 25.5662C66.3231 26.7298 67.601 28.1594 69.7252 28.1594C71.9822 28.1594 73.8907 26.8293 73.8907 23.5881V15.7091H72.0651V16.4237ZM75.2182 23.9536H77.1433V11.0546H75.2182V23.9536ZM79.9813 19.6984C79.9314 18.0027 81.2923 17.1386 82.2714 17.1386C83.0353 17.1386 83.6822 17.5207 83.8975 18.0697L79.9813 19.6984ZM85.9557 18.2357C85.591 17.2547 84.4785 15.4431 82.2049 15.4431C79.948 15.4431 78.0728 17.2216 78.0728 19.8314C78.0728 22.2916 79.9314 24.2197 82.4206 24.2197C84.4291 24.2197 85.591 22.9895 86.0721 22.2749L84.5784 21.2774C84.0809 22.0089 83.4 22.491 82.4206 22.491C81.4416 22.491 80.7447 22.042 80.2964 21.1613L86.1545 18.7343L85.9557 18.2357ZM39.2828 16.7896V18.6512H43.7303C43.5976 19.6984 43.249 20.4629 42.7179 20.9949C42.0709 21.6434 41.0585 22.358 39.2828 22.358C36.5444 22.358 34.4037 20.1473 34.4037 17.4046C34.4037 14.6619 36.5444 12.4509 39.2828 12.4509C40.7599 12.4509 41.8383 13.0328 42.635 13.7808L43.946 12.4678C42.8343 11.4037 41.3571 10.5893 39.2828 10.5893C35.532 10.5893 32.3789 13.6479 32.3789 17.4046C32.3789 21.1613 35.532 24.2197 39.2828 24.2197C41.3076 24.2197 42.8343 23.5551 44.029 22.3081C45.2571 21.0779 45.639 19.3493 45.639 17.9532C45.639 17.5207 45.6059 17.1221 45.5391 16.7896H39.2828ZM50.6954 22.491C49.3675 22.491 48.2223 21.3939 48.2223 19.8314C48.2223 18.2522 49.3675 17.1717 50.6954 17.1717C52.0228 17.1717 53.168 18.2522 53.168 19.8314C53.168 21.3939 52.0228 22.491 50.6954 22.491ZM50.6954 15.4431C48.2721 15.4431 46.2972 17.2881 46.2972 19.8314C46.2972 22.358 48.2721 24.2197 50.6954 24.2197C53.1181 24.2197 55.0931 22.358 55.0931 19.8314C55.0931 17.2881 53.1181 15.4431 50.6954 15.4431ZM60.2891 22.491C58.9617 22.491 57.8164 21.3939 57.8164 19.8314C57.8164 18.2522 58.9617 17.1717 60.2891 17.1717C61.6166 17.1717 62.7618 18.2522 62.7618 19.8314C62.7618 21.3939 61.6166 22.491 60.2891 22.491H60.2891ZM60.2891 15.4431C57.866 15.4431 55.8914 17.2881 55.8914 19.8314C55.8914 22.358 57.866 24.2197 60.2891 24.2197C62.712 24.2197 64.6869 22.358 64.6869 19.8314C64.6869 17.2881 62.712 15.4431 60.2891 15.4431H60.2891Z" fill="white"/>
<path d="M17.9437 17.8992L13.6888 13.6367L17.9434 9.37484L23.0798 12.2977C23.7321 12.6689 24.0983 13.1474 24.1595 13.6362V13.6382C24.0983 14.1259 23.7321 14.6048 23.0798 14.9759L17.9438 17.8991" fill="url(#paint0_linear_5152_17)"/>
<path d="M13.6894 13.6365L0.926392 0.853162C1.169 0.634291 1.47969 0.518223 1.83577 0.518223C2.18508 0.518223 2.57738 0.629838 2.99189 0.865217L17.9439 9.37466L13.6894 13.6365" fill="url(#paint1_linear_5152_17)"/>
<path d="M0.927505 26.4191L0.850946 26.3457C0.551204 26.0281 0.374207 25.5347 0.374207 24.896V25.0463V2.22771V2.37841C0.374207 1.68675 0.580557 1.16568 0.926253 0.853276L13.6893 13.6366L0.927505 26.4191Z" fill="url(#paint2_linear_5152_17)"/>
<path d="M1.83796 26.7546C1.48146 26.755 1.17036 26.6385 0.927795 26.4192V26.4189L13.6895 13.6364L17.9445 17.8989L2.992 26.4084C2.57832 26.6434 2.18635 26.7546 1.83796 26.7546Z" fill="url(#paint3_linear_5152_17)"/>
<defs>
<linearGradient id="paint0_linear_5152_17" x1="24.9542" y1="13.563" x2="0.0284" y2="13.563" gradientUnits="userSpaceOnUse">
<stop stop-color="#FFE000"/>
<stop offset="0.4087" stop-color="#FFBD00"/>
<stop offset="0.7754" stop-color="#FFA500"/>
<stop offset="1" stop-color="#FF9C00"/>
</linearGradient>
<linearGradient id="paint1_linear_5152_17" x1="-2.363" y1="-1.04203" x2="5.9437" y2="7.22999" gradientUnits="userSpaceOnUse">
<stop stop-color="#32A071"/>
<stop offset="0.0685" stop-color="#2DA771"/>
<stop offset="0.4762" stop-color="#15CF74"/>
<stop offset="0.8009" stop-color="#06E775"/>
<stop offset="1" stop-color="#00F076"/>
</linearGradient>
<linearGradient id="paint2_linear_5152_17" x1="8.53054" y1="1.98654" x2="-2.46831" y2="13.0031" gradientUnits="userSpaceOnUse">
<stop stop-color="#00A0FF"/>
<stop offset="0.00657" stop-color="#00A1FF"/>
<stop offset="0.2601" stop-color="#00BEFF"/>
<stop offset="0.5122" stop-color="#00D2FF"/>
<stop offset="0.7604" stop-color="#00DFFF"/>
<stop offset="1" stop-color="#00E3FF"/>
</linearGradient>
<linearGradient id="paint3_linear_5152_17" x1="15.6855" y1="17.6891" x2="-2.9529" y2="36.2211" gradientUnits="userSpaceOnUse">
<stop stop-color="#FF3A44"/>
<stop offset="1" stop-color="#C31162"/>
</linearGradient>
</defs>
</svg>
