<svg width="12" height="8" viewBox="0 0 12 8" fill="none" xmlns="http://www.w3.org/2000/svg">
<path d="M6.94765 4.56908H6.84461C6.84377 5.41382 6.59745 6.06993 6.10731 6.56248L6.10624 6.56331L6.10578 6.56415C5.54284 7.15371 4.81922 7.44714 3.90942 7.4484C3.04117 7.44714 2.3144 7.15051 1.70754 6.54917C1.10203 5.94663 0.802614 5.21104 0.801454 4.31794C0.802614 3.42442 1.10203 2.68925 1.70754 2.08713C2.3144 1.48537 3.04117 1.18832 3.90942 1.18706C4.33882 1.18706 4.74767 1.271 5.13755 1.43821C5.52786 1.60672 5.83618 1.82754 6.0659 2.10169L6.14478 2.0351L6.07198 1.96216L5.52869 2.50701L5.6015 2.57958L5.68084 2.51355C5.2526 1.99962 4.65154 1.74055 3.90947 1.74208C3.23472 1.74124 2.64118 1.98274 2.1502 2.45837C1.65449 2.93553 1.40543 3.56385 1.40627 4.31794C1.40543 5.07207 1.65449 5.70035 2.1502 6.17755C2.64118 6.65318 3.23472 6.89463 3.90942 6.8938C4.62247 6.89505 5.23016 6.65276 5.70856 6.17236C6.02806 5.85147 6.20919 5.40701 6.25667 4.85436L6.26627 4.74233H4.01246V4.20507H6.90452V4.1019L6.80306 4.12003C6.83125 4.27648 6.84456 4.42515 6.84456 4.56908H7.05059C7.05059 4.41226 7.03608 4.25107 7.00589 4.08344L6.99063 3.99872H3.80648V4.94868H6.15401V4.8455L6.05143 4.83664C6.00599 5.35581 5.84096 5.74677 5.56292 6.02652C5.12031 6.46821 4.57707 6.6862 3.90947 6.68745C3.28299 6.68661 2.75144 6.47057 2.29311 6.02926C1.83923 5.58952 1.61345 5.02811 1.61229 4.31794C1.61345 3.60777 1.83923 3.04635 2.29311 2.60662C2.75144 2.16531 3.28295 1.94926 3.90947 1.94843C4.60605 1.9501 5.13204 2.18061 5.52276 2.64613L5.59519 2.73238L6.21767 2.10808L6.28445 2.04122L6.22365 1.96897C5.97056 1.66677 5.63335 1.4269 5.21889 1.24883C4.80364 1.07021 4.36543 0.980714 3.90947 0.980714C2.99369 0.979926 2.20339 1.30234 1.56236 1.94041C0.918958 2.57722 0.594641 3.37768 0.595522 4.31794C0.594641 5.25779 0.918957 6.0587 1.56277 6.69589C2.20339 7.33353 2.99369 7.65558 3.90947 7.65475C4.86318 7.65558 5.65432 7.33831 6.25468 6.70674L6.18016 6.63542L6.25301 6.70841C6.7866 6.17435 7.05133 5.45291 7.05063 4.56908H6.9476H6.94765ZM11.6958 1.98312H8.88104V3.946H11.4194V4.68988H8.88104V6.65276H11.6958V7.41329H8.08754V1.22259H11.6958V1.98312" fill="white"/>
</svg>
